# xmcd
#
# Track frame offsets:
#	150
#	4747
#	20419
#	22261
#	28716
#	65552
#	71863
#	86305
#	107735
#	141840
#	149809
#	164217
#	173156
#
# Disc length: 2460 seconds
#
# Revision: 0
# Processed by: cddbd v1.5.2PL0 Copyright (c) Steve Scherf et al.
# Submitted via: EZCDAudioConverter 2.1.7.1
#
DISCID=c0099a0d
DTITLE=William S. Burroughs - Let Me Hang You
DYEAR=1900
DGENRE=
TTITLE0=The Exterminator
TTITLE1=Manhattan Serenade
TTITLE2=Baboon
TTITLE3=This You Gotta Hear
TTITLE4=Disciplinary Procedures
TTITLE5=The Afterbirth King
TTITLE6=Lief The Unlucky
TTITLE7=Let Me Hang You
TTITLE8=Islam Incorporated
TTITLE9=The Queen Bee
TTITLE10=Clem Snide The Private Asshole
TTITLE11=Gentle Reader
TTITLE12=Quick
EXTD=
EXTT0=
EXTT1=
EXTT2=
EXTT3=
EXTT4=
EXTT5=
EXTT6=
EXTT7=
EXTT8=
EXTT9=
EXTT10=
EXTT11=
EXTT12=
PLAYORDER=
